<svg width="12" height="13" viewBox="0 0 12 13" fill="none" xmlns="http://www.w3.org/2000/svg">
<path fill-rule="evenodd" clip-rule="evenodd" d="M9.88461 4.41761C9.88461 5.23399 10.1004 5.71512 10.5752 6.26964C10.935 6.67816 11.05 7.20252 11.05 7.7714C11.05 8.33963 10.8633 8.87906 10.4892 9.31703C9.9996 9.8421 9.30897 10.1772 8.60418 10.2355C7.58283 10.3226 6.5609 10.3959 5.52532 10.3959C4.48909 10.3959 3.46778 10.3521 2.44644 10.2355C1.741 10.1772 1.05041 9.8421 0.561385 9.31703C0.187343 8.87906 0 8.33963 0 7.7714C0 7.20252 0.115635 6.67816 0.474819 6.26964C0.964496 5.71512 1.16605 5.23399 1.16605 4.41761V4.14069C1.16605 3.04742 1.43866 2.33254 2.00005 1.63271C2.83469 0.612105 4.17258 0 5.49627 0H5.55438C6.90651 0 8.28763 0.641563 9.10812 1.70603C9.64041 2.39145 9.88461 3.07622 9.88461 4.14069V4.41761ZM3.62289 11.7395C3.62289 11.4122 3.92328 11.2623 4.20107 11.1981C4.52601 11.1294 6.50604 11.1294 6.83098 11.1981C7.10879 11.2623 7.40915 11.4122 7.40915 11.7395C7.39297 12.0511 7.21019 12.3274 6.9576 12.5029C6.63006 12.7582 6.24572 12.9199 5.84389 12.9782C5.62165 13.007 5.40332 13.0076 5.18882 12.9782C4.78634 12.9199 4.40199 12.7582 4.0751 12.5022C3.82186 12.3274 3.63904 12.0511 3.62289 11.7395Z" fill="white"/>
</svg>
