<svg width="13" height="13" viewBox="0 0 13 13" fill="none" xmlns="http://www.w3.org/2000/svg">
<path d="M4.31283 12.2024V10.2153C4.31283 9.70769 4.72689 9.29623 5.2378 9.29623H7.10659C7.35164 9.29623 7.58693 9.39308 7.76048 9.56534C7.93404 9.73759 8.03153 9.97159 8.03153 10.2153V12.2024C8.03023 12.4137 8.11345 12.6165 8.26295 12.766C8.4131 12.9155 8.61656 13 8.82911 13H10.1038C10.6992 13.0013 11.2705 12.7679 11.6918 12.3506C12.1136 11.9333 12.3502 11.3665 12.3502 10.7757V5.11341C12.3502 4.63565 12.137 4.18324 11.7685 3.87708L7.43223 0.439167C6.67821 -0.163393 5.59724 -0.143894 4.86533 0.485318L0.628568 3.87708C0.242461 4.17414 0.0117002 4.6285 0 5.11341V10.7698C0 12.0016 1.00556 13 2.24644 13H3.49187C3.93323 13 4.29203 12.6464 4.29528 12.2083L4.31283 12.2024Z" fill="white"/>
</svg>
