<svg width="16" height="16" viewBox="0 0 16 16" fill="none" xmlns="http://www.w3.org/2000/svg">
<path d="M5.3081 15.0184V12.5727C5.3081 11.9479 5.81771 11.4415 6.44653 11.4415H8.74657C9.04817 11.4415 9.33776 11.5607 9.55137 11.7727C9.76497 11.9847 9.88497 12.2727 9.88497 12.5727V15.0184C9.88337 15.2784 9.98578 15.528 10.1698 15.712C10.3546 15.896 10.605 16 10.8666 16H12.4354C13.1682 16.0016 13.8714 15.7144 14.3899 15.2008C14.9091 14.6872 15.2003 13.9896 15.2003 13.2623V6.29342C15.2003 5.70541 14.9379 5.1486 14.4843 4.77179L9.14736 0.540514C8.21934 -0.2011 6.88891 -0.1771 5.98809 0.597314L0.773622 4.77179C0.298414 5.1374 0.0144003 5.69661 0 6.29342V13.2551C0 14.7712 1.23762 16 2.76484 16H4.29768C4.84089 16 5.2825 15.5648 5.2865 15.0256L5.3081 15.0184Z" fill="black"/>
</svg>
