<svg width="17" height="16" viewBox="0 0 17 16" fill="none" xmlns="http://www.w3.org/2000/svg">
<path opacity="0.4" fill-rule="evenodd" clip-rule="evenodd" d="M3.1927 14.7663C3.1927 14.0805 3.74784 13.5254 4.43361 13.5254C5.11122 13.5254 5.66638 14.0805 5.66638 14.7663C5.66638 15.4439 5.11122 15.9991 4.43361 15.9991C3.74784 15.9991 3.1927 15.4439 3.1927 14.7663ZM12.3771 14.7663C12.3771 14.0805 12.9323 13.5254 13.6181 13.5254C14.2957 13.5254 14.8508 14.0805 14.8508 14.7663C14.8508 15.4439 14.2957 15.9991 13.6181 15.9991C12.9323 15.9991 12.3771 15.4439 12.3771 14.7663Z" fill="black"/>
<path fill-rule="evenodd" clip-rule="evenodd" d="M14.8508 3.14257C15.3488 3.14257 15.6754 3.31402 16.002 3.68956C16.3285 4.0651 16.3856 4.60392 16.3122 5.09294L15.5366 10.4485C15.3897 11.478 14.508 12.2364 13.4711 12.2364H4.56427C3.47846 12.2364 2.58042 11.4037 2.49062 10.3268L1.73955 1.42733L0.506783 1.21506C0.180225 1.15792 -0.0483782 0.839523 0.00876944 0.512965C0.0659171 0.178243 0.384332 -0.0421827 0.719054 0.00680098L2.66614 0.300704C2.94371 0.350504 3.14781 0.578278 3.1723 0.855852L3.32742 2.68457C3.35191 2.94664 3.56418 3.14257 3.82543 3.14257H14.8508ZM9.90349 7.38701H12.1649C12.5078 7.38701 12.7772 7.10943 12.7772 6.77471C12.7772 6.43182 12.5078 6.16241 12.1649 6.16241H9.90349C9.56061 6.16241 9.2912 6.43182 9.2912 6.77471C9.2912 7.10943 9.56061 7.38701 9.90349 7.38701Z" fill="black"/>
</svg>
