<svg width="13" height="13" viewBox="0 0 13 13" fill="none" xmlns="http://www.w3.org/2000/svg">
<path fill-rule="evenodd" clip-rule="evenodd" d="M7.87885 6.00151H9.67792C9.95072 6.00151 10.1651 5.77596 10.1651 5.504C10.1651 5.22541 9.95072 5.00653 9.67792 5.00653H7.87885C7.60604 5.00653 7.39174 5.22541 7.39174 5.504C7.39174 5.77596 7.60604 6.00151 7.87885 6.00151ZM11.8148 2.55287C12.211 2.55287 12.4708 2.69217 12.7306 2.9973C12.9904 3.30243 13.0358 3.74023 12.9774 4.13757L12.3603 8.489C12.2435 9.32548 11.542 9.94168 10.7171 9.94168H3.63116C2.76732 9.94168 2.05288 9.26575 1.98144 8.3902L1.3839 1.15921L0.403171 0.986744C0.143372 0.940315 -0.038485 0.681615 0.006976 0.416278C0.0524435 0.144981 0.305748 -0.0347828 0.572041 0.00567969L2.12108 0.243814C2.34191 0.284276 2.50428 0.469344 2.52377 0.694881L2.64717 2.18074C2.66665 2.39367 2.83552 2.55287 3.04336 2.55287H11.8148ZM3.5271 10.9901C2.98153 10.9901 2.53988 11.4412 2.53988 11.9983C2.53988 12.549 2.98153 13 3.5271 13C4.06619 13 4.50784 12.549 4.50784 11.9983C4.50784 11.4412 4.06619 10.9901 3.5271 10.9901ZM10.8339 10.9901C10.2883 10.9901 9.84666 11.4412 9.84666 11.9983C9.84666 12.549 10.2883 13 10.8339 13C11.373 13 11.8147 12.549 11.8147 11.9983C11.8147 11.4412 11.373 10.9901 10.8339 10.9901Z" fill="white"/>
</svg>
