<svg width="15" height="16" viewBox="0 0 15 16" fill="none" xmlns="http://www.w3.org/2000/svg">
<path fill-rule="evenodd" clip-rule="evenodd" d="M13.8297 2.59438C14.1409 2.59438 14.4 2.85277 14.4 3.18157V3.48557C14.4 3.80636 14.1409 4.07276 13.8297 4.07276H0.57108C0.259088 4.07276 0 3.80636 0 3.48557V3.18157C0 2.85277 0.259088 2.59438 0.57108 2.59438H2.90366C3.37748 2.59438 3.78984 2.25758 3.89643 1.78238L4.01858 1.23678C4.20843 0.493592 4.8332 0 5.54822 0H8.85176C9.55904 0 10.1908 0.493592 10.3736 1.19759L10.5043 1.78158C10.6102 2.25758 11.0225 2.59438 11.4971 2.59438H13.8297ZM12.6446 13.7072C12.8882 11.4377 13.3146 6.0457 13.3146 5.9913C13.3301 5.8265 13.2764 5.6705 13.1698 5.5449C13.0554 5.4273 12.9107 5.3577 12.7513 5.3577H1.65482C1.49454 5.3577 1.34205 5.4273 1.23623 5.5449C1.12886 5.6705 1.07595 5.8265 1.08374 5.9913C1.08517 6.0013 1.10046 6.19122 1.12604 6.50872C1.23966 7.91936 1.55614 11.8482 1.76063 13.7072C1.90534 15.0768 2.80398 15.9376 4.10565 15.9688C5.1101 15.992 6.14488 16 7.20304 16C8.19968 16 9.21192 15.992 10.2475 15.9688C11.5943 15.9456 12.4922 15.1 12.6446 13.7072Z" fill="white"/>
</svg>
